<svg width="70" height="70" viewBox="0 0 70 70" fill="none" xmlns="http://www.w3.org/2000/svg">
<circle cx="35" cy="35" r="35" fill="#00C508"/>
<path d="M35 22C34.375 22 33.754 22.21 33.219 22.594L31.563 23.75L29.655 24H29.624L29.593 24.031C28.9672 24.1723 28.3943 24.4881 27.9407 24.9417C27.4871 25.3953 27.1713 25.9682 27.03 26.594L27 26.625V26.656L26.75 28.594L25.594 30.094L25.562 30.125V30.156C24.863 31.273 24.832 32.715 25.594 33.781L26.781 35.437L27.094 37.157L23.875 42.062L22.844 43.594H27.625L28.781 46.281L29.5 48L30.531 46.437L33.687 41.687C34.535 42.035 35.492 42.067 36.313 41.687L39.469 46.437L40.5 48L41.219 46.281L42.375 43.594H47.156L46.125 42.062L43 37.313L43.25 35.438L44.406 33.782L44.438 33.751V33.72C45.137 32.603 45.168 31.192 44.406 30.126L43.25 28.469L42.875 26.594H42.906C42.902 26.57 42.879 26.554 42.875 26.531C42.695 25.223 41.66 24.161 40.344 24H40.312L38.437 23.75L36.781 22.594C36.2638 22.2151 35.6411 22.0074 35 22ZM35 24.031C35.23 24.031 35.457 24.101 35.625 24.219L37.406 25.5L37.625 25.656L37.875 25.688L40.063 26H40.093C40.543 26.05 40.855 26.363 40.906 26.813V26.875L41.313 29.094L41.343 29.313L41.5 29.5L42.781 31.281C43.02 31.613 43.051 32.176 42.75 32.656L41.344 34.625L41.312 34.875L41 37.063V37.093C40.9834 37.2493 40.9299 37.3994 40.844 37.531L40.781 37.563V37.593C40.6324 37.7715 40.4192 37.884 40.188 37.906H40.125L37.844 38.313L37.594 38.343L37.406 38.5L35.625 39.781C35.293 40.02 34.699 40.051 34.219 39.75L32.594 38.5L32.406 38.344L32.125 38.312L29.937 38H29.907C29.7656 37.9875 29.6293 37.9412 29.5095 37.865C29.3898 37.7887 29.2901 37.6848 29.219 37.562C29.1525 37.4467 29.11 37.3191 29.094 37.187V37.125L28.688 34.844L28.656 34.594L28.5 34.406L27.219 32.625C26.98 32.293 26.949 31.699 27.25 31.219L28.5 29.594L28.656 29.406L28.687 29.125L28.969 27.031C28.973 27.016 28.996 27.016 29 27C29.0623 26.7593 29.1879 26.5396 29.3638 26.3638C29.5396 26.1879 29.7593 26.0623 30 26C30.016 25.996 30.016 25.973 30.031 25.969L32.125 25.687L32.375 25.657L32.594 25.5L34.375 24.219C34.543 24.102 34.77 24.031 35 24.031ZM41.906 39.25L43.438 41.594H41.03L40.78 42.219L40.093 43.812L37.968 40.562L38.436 40.219L40.406 39.875V39.906C40.429 39.902 40.444 39.879 40.468 39.875C40.9943 39.7991 41.4916 39.5832 41.906 39.25ZM28.094 39.281C28.5282 39.6758 29.0737 39.9269 29.656 40H29.687L31.594 40.25L32.031 40.594L29.906 43.812L29.219 42.219L28.969 41.594H26.563L28.094 39.281Z" fill="white"/>
</svg>
