<svg width="70" height="70" viewBox="0 0 70 70" fill="none" xmlns="http://www.w3.org/2000/svg">
<circle cx="35" cy="35" r="35" fill="#608BFF"/>
<path d="M50 27C50 26.6 49.8 26.3 49.5 26.1L42.5 22.1C42.3 22 42.2 22 42 22C41.8 22 41.7 22 41.5 22.1L35 25.8L28.5 22.1C28.3 22 28.2 22 28 22C27.8 22 27.7 22 27.5 22.1L20.5 26.1C20.2 26.3 20 26.6 20 27V47C20 47.6 20.4 48 21 48C21.2 48 21.3 47.9 21.5 47.9L28 44.2L34.5 47.9C34.7 48 34.8 48 35 48C35.2 48 35.3 48 35.5 47.9L42 44.2L48.5 47.9C48.6 48 48.8 48 49 48C49.6 48 50 47.6 50 47V27ZM22 27.6L27 24.7V42.4L22 45.3V27.6ZM34 45.3L29 42.4V24.7L34 27.6V45.3ZM41 42.4L36 45.3V27.6L41 24.7V42.4ZM43 42.4V24.7L48 27.6V45.3L43 42.4Z" fill="white"/>
</svg>
