<svg width="70" height="70" viewBox="0 0 70 70" fill="none" xmlns="http://www.w3.org/2000/svg">
<circle cx="35" cy="35" r="35" fill="#FF5000"/>
<path d="M35 39C35.7333 39 36.3613 38.7387 36.884 38.216C37.4058 37.6942 37.6666 37.0667 37.6666 36.3334C37.6666 35.6 37.4058 34.972 36.884 34.4494C36.3613 33.9276 35.7333 33.6667 35 33.6667C34.2666 33.6667 33.6391 33.9276 33.1173 34.4494C32.5946 34.972 32.3333 35.6 32.3333 36.3334C32.3333 37.0667 32.5946 37.6942 33.1173 38.216C33.6391 38.7387 34.2666 39 35 39ZM42.4666 45.6667L37.7 40.9C37.3222 41.1445 36.9058 41.3334 36.4506 41.4667C35.9946 41.6 35.5111 41.6667 35 41.6667C33.5333 41.6667 32.2778 41.1445 31.2333 40.1C30.1889 39.0556 29.6666 37.8 29.6666 36.3334C29.6666 34.8667 30.1889 33.6111 31.2333 32.5667C32.2778 31.5222 33.5333 31 35 31C36.4666 31 37.7222 31.5222 38.7666 32.5667C39.8111 33.6111 40.3333 34.8667 40.3333 36.3334C40.3333 36.8445 40.2666 37.3222 40.1333 37.7667C40 38.2111 39.8111 38.6222 39.5666 39L43 42.4334V30.6334L37.7333 24.3334H27V45.6667H42.4666ZM27 48.3334C26.2666 48.3334 25.6391 48.0725 25.1173 47.5507C24.5946 47.028 24.3333 46.4 24.3333 45.6667V24.3334C24.3333 23.6 24.5946 22.972 25.1173 22.4494C25.6391 21.9276 26.2666 21.6667 27 21.6667H37.7666C38.1666 21.6667 38.5444 21.7502 38.9 21.9174C39.2555 22.0836 39.5555 22.3222 39.8 22.6334L45.0333 28.9334C45.2111 29.1778 45.3613 29.4445 45.484 29.7334C45.6058 30.0222 45.6666 30.3222 45.6666 30.6334V45.6667C45.6666 46.4 45.4058 47.028 44.884 47.5507C44.3613 48.0725 43.7333 48.3334 43 48.3334H27Z" fill="white"/>
</svg>
