<svg width="104" height="24" viewBox="0 0 104 24" fill="none" xmlns="http://www.w3.org/2000/svg">
<path d="M94 12C94 12.3956 93.8827 12.7822 93.6629 13.1111C93.4432 13.44 93.1308 13.6964 92.7654 13.8478C92.3999 13.9991 91.9978 14.0387 91.6098 13.9616C91.2219 13.8844 90.8655 13.6939 90.5858 13.4142C90.3061 13.1345 90.1156 12.7781 90.0384 12.3902C89.9613 12.0022 90.0009 11.6001 90.1522 11.2346C90.3036 10.8692 90.56 10.5568 90.8889 10.3371C91.2178 10.1173 91.6044 10 92 10C92.5299 10.0016 93.0377 10.2129 93.4124 10.5876C93.7871 10.9623 93.9984 11.4701 94 12ZM98.25 9.25V14.75C98.25 15.6783 97.8813 16.5685 97.2249 17.2249C96.5685 17.8813 95.6783 18.25 94.75 18.25H89.25C88.3217 18.25 87.4315 17.8813 86.7751 17.2249C86.1187 16.5685 85.75 15.6783 85.75 14.75V9.25C85.75 8.32174 86.1187 7.4315 86.7751 6.77513C87.4315 6.11875 88.3217 5.75 89.25 5.75H94.75C95.6783 5.75 96.5685 6.11875 97.2249 6.77513C97.8813 7.4315 98.25 8.32174 98.25 9.25ZM95 12C95 11.4067 94.8241 10.8266 94.4944 10.3333C94.1648 9.83994 93.6962 9.45542 93.1481 9.22836C92.5999 9.0013 91.9967 8.94189 91.4147 9.05764C90.8328 9.1734 90.2982 9.45912 89.8787 9.87868C89.4591 10.2982 89.1734 10.8328 89.0576 11.4147C88.9419 11.9967 89.0013 12.5999 89.2284 13.1481C89.4554 13.6962 89.8399 14.1648 90.3333 14.4944C90.8266 14.8241 91.4067 15 92 15C92.7956 15 93.5587 14.6839 94.1213 14.1213C94.6839 13.5587 95 12.7956 95 12ZM96 8.75C96 8.60166 95.956 8.45666 95.8736 8.33332C95.7912 8.20999 95.6741 8.11386 95.537 8.05709C95.4 8.00032 95.2492 7.98547 95.1037 8.01441C94.9582 8.04335 94.8246 8.11478 94.7197 8.21967C94.6148 8.32456 94.5434 8.4582 94.5144 8.60368C94.4855 8.74917 94.5003 8.89997 94.5571 9.03701C94.6139 9.17406 94.71 9.29119 94.8333 9.3736C94.9567 9.45601 95.1017 9.5 95.25 9.5C95.4489 9.5 95.6397 9.42098 95.7803 9.28033C95.921 9.13968 96 8.94891 96 8.75Z" fill="black"/>
<circle cx="92" cy="12" r="11.5" stroke="black"/>
<circle cx="52" cy="12" r="11.5" stroke="black"/>
<path d="M53.3333 12.9999H55L55.6667 10.3333H53.3333V8.99992C53.3333 8.31325 53.3333 7.66659 54.6667 7.66659H55.6667V5.42659C55.4493 5.39792 54.6287 5.33325 53.762 5.33325C51.952 5.33325 50.6667 6.43792 50.6667 8.46658V10.3333H48.6667V12.9999H50.6667V18.6666H53.3333V12.9999Z" fill="black"/>
<circle cx="12" cy="12" r="11.5" stroke="black"/>
<path d="M18.9733 8.00008C18.46 8.23341 17.9067 8.38675 17.3333 8.46008C17.92 8.10675 18.3733 7.54675 18.5867 6.87341C18.0333 7.20675 17.42 7.44008 16.7733 7.57341C16.2467 7.00008 15.5067 6.66675 14.6667 6.66675C13.1 6.66675 11.82 7.94675 11.82 9.52675C11.82 9.75341 11.8467 9.97341 11.8933 10.1801C9.52001 10.0601 7.40667 8.92008 6.00001 7.19341C5.75334 7.61341 5.61334 8.10675 5.61334 8.62675C5.61334 9.62008 6.11334 10.5001 6.88667 11.0001C6.41334 11.0001 5.97334 10.8667 5.58667 10.6667V10.6867C5.58667 12.0734 6.57334 13.2334 7.88001 13.4934C7.46049 13.6082 7.02007 13.6242 6.59334 13.5401C6.77441 14.1084 7.12903 14.6057 7.60735 14.962C8.08567 15.3184 8.66364 15.5159 9.26001 15.5267C8.24909 16.327 6.996 16.7596 5.70667 16.7534C5.48001 16.7534 5.25334 16.7401 5.02667 16.7134C6.29334 17.5267 7.80001 18.0001 9.41334 18.0001C14.6667 18.0001 17.5533 13.6401 17.5533 9.86008C17.5533 9.73341 17.5533 9.61341 17.5467 9.48675C18.1067 9.08675 18.5867 8.58008 18.9733 8.00008Z" fill="black"/>
</svg>
